<svg width="156" height="174" viewBox="0 0 156 174" fill="none" xmlns="http://www.w3.org/2000/svg">
<path d="M97.5 32.625H58.5L44.0578 8.45531C41.8945 4.83937 44.2102 0 48.1102 0H107.89C111.79 0 114.105 4.83937 111.942 8.45531L97.5 32.625ZM58.5 43.5H97.5C98.6578 44.3496 99.968 45.3012 101.187 46.3547C118.737 58.691 156 85.2668 156 141.375C156 159.387 142.898 174 126.75 174H29.25C13.0955 174 0 159.387 0 141.375C0 85.2668 37.2633 58.691 54.5391 46.3547C56.032 45.3012 57.3422 44.3496 58.5 43.5V43.5ZM84.1242 76.125C84.1242 72.3527 81.382 69.2941 77.7258 69.2941C74.618 69.2941 71.8758 72.3527 71.8758 76.125V78.1641C70.1695 78.5719 68.2805 79.1496 67.0312 79.8973C62.4914 82.2082 58.5305 86.4902 57.5555 92.7094C57.007 96.1758 57.3117 99.5402 58.5914 102.565C59.8711 105.555 61.8516 107.662 63.8625 109.192C67.3969 111.877 72.0586 113.44 75.6234 114.629L76.2937 114.833C80.5594 116.295 83.4234 117.348 85.2211 118.809C85.9828 119.421 86.257 119.897 86.3484 120.203C86.4703 120.475 86.6531 121.086 86.4398 122.446C86.257 123.635 85.6781 124.655 84.0023 125.436C82.1438 126.32 79.1273 126.762 75.2273 126.082C73.3992 125.742 70.1391 124.519 67.2445 123.431C66.5742 123.159 65.9039 122.921 65.2945 122.684C62.0953 121.494 58.6523 123.431 57.5859 127C56.5195 130.568 58.2562 134.408 61.4555 135.292C61.8211 135.734 62.2781 135.904 62.7961 136.107C64.9289 137.025 68.9812 138.452 71.8758 139.2V141.375C71.8758 145.147 74.618 148.206 77.7258 148.206C81.382 148.206 84.1242 145.147 84.1242 141.375V139.506C85.7391 139.166 87.3234 138.35 88.7859 137.943C93.6 135.666 97.4391 131.248 98.4445 124.791C98.993 121.256 98.7492 117.858 97.5305 114.765C96.3422 111.707 94.4227 109.464 92.3813 107.832C88.6945 104.808 83.7586 103.177 80.0719 101.919L79.5539 101.851C75.5016 100.39 72.5766 99.3703 70.718 97.943C69.9258 97.3313 69.682 96.9234 69.6211 96.7535C69.5602 96.6176 69.3773 96.2098 69.5602 95.0543C69.682 94.3746 70.1391 93.2531 72.0586 92.3016C73.7648 91.316 77.0555 90.7723 80.7727 91.1121C82.1133 91.6559 86.2266 92.5394 87.4148 92.8793C90.6445 93.8648 93.9961 91.6898 94.8492 88.0535C95.7328 84.4512 93.7828 80.7129 90.5227 79.7613C89.182 79.3535 86.1352 78.6738 84.1242 78.266V76.125V76.125Z" fill="white"/>
</svg>
