<svg width="306" height="43" viewBox="0 0 306 43" fill="none" xmlns="http://www.w3.org/2000/svg">
<path d="M13.248 11.896C14.656 11.896 15.808 12.1093 16.704 12.536C17.6213 12.9413 18.432 13.4213 19.136 13.976C19.5627 14.296 19.8827 14.3387 20.096 14.104C20.3307 13.848 20.4907 13.2613 20.576 12.344H21.312C21.2693 13.1973 21.2373 14.2427 21.216 15.48C21.1947 16.696 21.184 18.3173 21.184 20.344H20.448C20.3627 19.32 20.224 18.4133 20.032 17.624C19.84 16.8133 19.552 16.0987 19.168 15.48C18.784 14.8613 18.2293 14.3173 17.504 13.848C17.056 13.5493 16.576 13.3147 16.064 13.144C15.5733 12.9733 15.0613 12.888 14.528 12.888C13.312 12.888 12.3093 13.2293 11.52 13.912C10.7307 14.5733 10.112 15.448 9.664 16.536C9.23733 17.6027 8.93867 18.776 8.768 20.056C8.59733 21.3147 8.512 22.5413 8.512 23.736C8.512 24.9307 8.59733 26.168 8.768 27.448C8.93867 28.7067 9.23733 29.88 9.664 30.968C10.112 32.0347 10.7307 32.9093 11.52 33.592C12.3093 34.2533 13.312 34.584 14.528 34.584C15.0613 34.584 15.5733 34.4987 16.064 34.328C16.576 34.136 17.056 33.9013 17.504 33.624C18.5707 32.9627 19.2853 32.0773 19.648 30.968C20.032 29.8587 20.2987 28.4293 20.448 26.68H21.184C21.184 28.7707 21.1947 30.4667 21.216 31.768C21.2373 33.048 21.2693 34.1253 21.312 35H20.576C20.4907 34.0827 20.3413 33.5067 20.128 33.272C19.936 33.0373 19.6053 33.0693 19.136 33.368C18.3467 33.9227 17.504 34.4133 16.608 34.84C15.7333 35.2453 14.6027 35.448 13.216 35.448C10.8053 35.448 8.69333 34.9893 6.88 34.072C5.06667 33.1547 3.65867 31.832 2.656 30.104C1.65333 28.376 1.152 26.296 1.152 23.864C1.152 21.4747 1.664 19.384 2.688 17.592C3.73333 15.8 5.16267 14.4027 6.976 13.4C8.78933 12.3973 10.88 11.896 13.248 11.896ZM35.1935 12.344V12.984C34.4682 13.0053 33.9135 13.0907 33.5295 13.24C33.1668 13.368 32.9215 13.624 32.7935 14.008C32.6655 14.3707 32.6015 14.9467 32.6015 15.736V32.248C32.6015 32.824 32.6442 33.2613 32.7295 33.56C32.8148 33.8373 32.9748 34.0293 33.2095 34.136C33.4442 34.2213 33.7855 34.264 34.2335 34.264H35.2895C35.8442 34.264 36.4415 34.0507 37.0815 33.624C37.7215 33.1973 38.3402 32.6107 38.9375 31.864C39.5562 31.1173 40.0895 30.2747 40.5375 29.336C40.9855 28.376 41.3055 27.384 41.4975 26.36H42.2335C42.1695 27.128 42.1375 28.1093 42.1375 29.304C42.1375 29.8587 42.1482 30.6693 42.1695 31.736C42.1908 32.7813 42.2548 33.8693 42.3615 35C41.2735 34.9573 40.0468 34.936 38.6815 34.936C37.3162 34.9147 36.1002 34.904 35.0335 34.904C34.4575 34.904 33.7215 34.904 32.8255 34.904C31.9508 34.904 30.9908 34.9147 29.9455 34.936C28.9215 34.936 27.8762 34.9467 26.8095 34.968C25.7642 34.968 24.7722 34.9787 23.8335 35V34.36C24.4948 34.3173 24.9855 34.232 25.3055 34.104C25.6255 33.976 25.8388 33.72 25.9455 33.336C26.0522 32.952 26.1055 32.376 26.1055 31.608V15.736C26.1055 14.9467 26.0522 14.3707 25.9455 14.008C25.8388 13.624 25.6148 13.368 25.2735 13.24C24.9535 13.0907 24.4735 13.0053 23.8335 12.984V12.344C24.4522 12.3653 25.2628 12.3867 26.2655 12.408C27.2895 12.4293 28.3775 12.44 29.5295 12.44C30.5962 12.44 31.6415 12.4293 32.6655 12.408C33.6895 12.3867 34.5322 12.3653 35.1935 12.344ZM55.7048 12.344L63.4488 32.312C63.7474 33.0373 64.0674 33.56 64.4088 33.88C64.7501 34.1787 65.0594 34.3387 65.3368 34.36V35C64.5688 34.9573 63.6728 34.936 62.6488 34.936C61.6248 34.9147 60.5794 34.904 59.5128 34.904C58.4248 34.904 57.4008 34.9147 56.4408 34.936C55.4808 34.936 54.7128 34.9573 54.1368 35V34.36C55.2248 34.3173 55.9074 34.136 56.1848 33.816C56.4834 33.4747 56.4194 32.76 55.9928 31.672L50.8728 17.496L51.5128 16.376L47.0968 27.864C46.5634 29.2507 46.2328 30.3707 46.1048 31.224C45.9981 32.056 46.0514 32.696 46.2648 33.144C46.4781 33.592 46.8194 33.9013 47.2888 34.072C47.7581 34.2427 48.3128 34.3387 48.9528 34.36V35C48.1634 34.9573 47.4488 34.936 46.8088 34.936C46.1901 34.9147 45.5074 34.904 44.7608 34.904C44.3554 34.904 43.9181 34.9147 43.4488 34.936C43.0008 34.936 42.6167 34.9573 42.2967 35V34.36C42.7874 34.2747 43.2674 33.9653 43.7368 33.432C44.2274 32.8773 44.7288 31.9387 45.2408 30.616L52.3448 12.344C52.8568 12.3867 53.4114 12.408 54.0088 12.408C54.6274 12.408 55.1928 12.3867 55.7048 12.344ZM56.8248 25.784V26.424H47.2888L47.6088 25.784H56.8248ZM65.396 12.344C66.0147 12.3653 66.8253 12.3867 67.828 12.408C68.852 12.4293 69.876 12.44 70.9 12.44C71.9667 12.44 72.9907 12.4293 73.972 12.408C74.9533 12.3867 75.6467 12.376 76.052 12.376C78.228 12.376 80.02 12.5787 81.428 12.984C82.8573 13.3893 83.924 14.008 84.628 14.84C85.332 15.6507 85.684 16.6853 85.684 17.944C85.684 18.7333 85.524 19.5013 85.204 20.248C84.884 20.9947 84.34 21.6773 83.572 22.296C82.804 22.8933 81.748 23.3733 80.404 23.736C79.0813 24.0773 77.396 24.248 75.348 24.248H72.276V23.608H75.028C76.116 23.608 76.9373 23.3733 77.492 22.904C78.068 22.4133 78.452 21.7733 78.644 20.984C78.8573 20.1733 78.964 19.2773 78.964 18.296C78.964 16.6107 78.7293 15.3093 78.26 14.392C77.812 13.4533 77.0227 12.984 75.892 12.984C75.1667 12.984 74.6973 13.1653 74.484 13.528C74.2707 13.8907 74.164 14.6267 74.164 15.736V31.608C74.164 32.376 74.2173 32.952 74.324 33.336C74.452 33.72 74.676 33.976 74.996 34.104C75.316 34.232 75.796 34.3173 76.436 34.36V35C75.8173 34.9573 75.0173 34.936 74.036 34.936C73.076 34.9147 72.0947 34.904 71.092 34.904C69.94 34.904 68.852 34.9147 67.828 34.936C66.8253 34.936 66.0147 34.9573 65.396 35V34.36C66.0573 34.3173 66.548 34.232 66.868 34.104C67.188 33.976 67.4013 33.72 67.508 33.336C67.6147 32.952 67.668 32.376 67.668 31.608V15.736C67.668 14.9467 67.6147 14.3707 67.508 14.008C67.4013 13.624 67.1773 13.368 66.836 13.24C66.516 13.0907 66.036 13.0053 65.396 12.984V12.344ZM72.084 23.704C72.852 23.7253 73.5773 23.768 74.26 23.832C74.9427 23.896 75.572 23.96 76.148 24.024C76.724 24.0667 77.2147 24.0987 77.62 24.12C79.9027 24.2267 81.6093 24.6213 82.74 25.304C83.892 25.9867 84.596 26.9893 84.852 28.312L85.524 31.64C85.6947 32.4293 85.8867 32.9733 86.1 33.272C86.3133 33.5707 86.6013 33.72 86.964 33.72C87.1773 33.72 87.3587 33.688 87.508 33.624C87.6573 33.56 87.8067 33.4533 87.956 33.304L88.372 33.72C87.7107 34.3813 86.9853 34.8293 86.196 35.064C85.428 35.32 84.5533 35.448 83.572 35.448C82.1853 35.448 81.0653 35.2027 80.212 34.712C79.3587 34.2 78.836 33.2933 78.644 31.992L78.164 28.792C78.036 27.9173 77.876 27.1387 77.684 26.456C77.492 25.7733 77.236 25.24 76.916 24.856C76.596 24.4507 76.1587 24.248 75.604 24.248H72.148L72.084 23.704ZM99.4985 12.344V12.984C98.8585 13.0053 98.3678 13.0907 98.0265 13.24C97.7065 13.368 97.4932 13.624 97.3865 14.008C97.2798 14.3707 97.2265 14.9467 97.2265 15.736V31.608C97.2265 32.376 97.2798 32.952 97.3865 33.336C97.5145 33.72 97.7385 33.976 98.0585 34.104C98.3785 34.232 98.8585 34.3173 99.4985 34.36V35C98.8798 34.9573 98.0798 34.936 97.0985 34.936C96.1385 34.9147 95.1572 34.904 94.1545 34.904C93.0025 34.904 91.9145 34.9147 90.8905 34.936C89.8878 34.936 89.0772 34.9573 88.4585 35V34.36C89.1198 34.3173 89.6105 34.232 89.9305 34.104C90.2505 33.976 90.4638 33.72 90.5705 33.336C90.6772 32.952 90.7305 32.376 90.7305 31.608V15.736C90.7305 14.9467 90.6772 14.3707 90.5705 14.008C90.4638 13.624 90.2398 13.368 89.8985 13.24C89.5785 13.0907 89.0985 13.0053 88.4585 12.984V12.344C89.0772 12.3653 89.8878 12.3867 90.8905 12.408C91.9145 12.4293 93.0025 12.44 94.1545 12.44C95.1572 12.44 96.1385 12.4293 97.0985 12.408C98.0798 12.3867 98.8798 12.3653 99.4985 12.344Z" fill="white"/>
<path d="M124.664 11.896C126.051 11.896 127.128 12.0347 127.896 12.312C128.664 12.5893 129.315 12.8773 129.848 13.176C130.104 13.3253 130.307 13.4427 130.456 13.528C130.627 13.592 130.787 13.624 130.936 13.624C131.149 13.624 131.299 13.5067 131.384 13.272C131.491 13.0373 131.576 12.6853 131.64 12.216H132.376C132.355 12.664 132.323 13.1867 132.28 13.784C132.259 14.3813 132.237 15.1707 132.216 16.152C132.216 17.1333 132.216 18.424 132.216 20.024H131.48C131.395 18.8507 131.117 17.7093 130.648 16.6C130.2 15.4907 129.571 14.5733 128.76 13.848C127.971 13.1227 127.021 12.76 125.912 12.76C124.973 12.76 124.195 13.016 123.576 13.528C122.957 14.04 122.648 14.776 122.648 15.736C122.648 16.5253 122.84 17.208 123.224 17.784C123.608 18.3387 124.205 18.9253 125.016 19.544C125.848 20.1627 126.936 20.9413 128.28 21.88C129.24 22.5413 130.104 23.2027 130.872 23.864C131.661 24.5253 132.291 25.272 132.76 26.104C133.229 26.936 133.464 27.9387 133.464 29.112C133.464 30.5413 133.059 31.7253 132.248 32.664C131.459 33.6027 130.403 34.3067 129.08 34.776C127.757 35.224 126.317 35.448 124.76 35.448C123.309 35.448 122.147 35.32 121.272 35.064C120.419 34.808 119.693 34.5413 119.096 34.264C118.627 33.9653 118.264 33.816 118.008 33.816C117.795 33.816 117.635 33.9333 117.528 34.168C117.443 34.4027 117.368 34.7547 117.304 35.224H116.568C116.611 34.6693 116.632 34.0293 116.632 33.304C116.653 32.5573 116.664 31.5973 116.664 30.424C116.685 29.2507 116.696 27.7573 116.696 25.944H117.432C117.517 27.4373 117.752 28.8347 118.136 30.136C118.541 31.4373 119.149 32.4933 119.96 33.304C120.792 34.0933 121.891 34.488 123.256 34.488C124.045 34.488 124.717 34.3707 125.272 34.136C125.848 33.88 126.296 33.5173 126.616 33.048C126.936 32.5787 127.096 32.0133 127.096 31.352C127.096 30.456 126.893 29.6773 126.488 29.016C126.083 28.3333 125.528 27.704 124.824 27.128C124.141 26.5307 123.341 25.9333 122.424 25.336C121.421 24.6533 120.483 23.9707 119.608 23.288C118.733 22.6053 118.029 21.8373 117.496 20.984C116.984 20.1307 116.728 19.1173 116.728 17.944C116.728 16.536 117.101 15.3947 117.848 14.52C118.595 13.624 119.576 12.9627 120.792 12.536C122.008 12.1093 123.299 11.896 124.664 11.896ZM156.257 12.344C156.172 13.6027 156.108 14.8187 156.065 15.992C156.044 17.1653 156.033 18.0613 156.033 18.68C156.033 19.128 156.044 19.5547 156.065 19.96C156.086 20.3653 156.108 20.7067 156.129 20.984H155.393C154.902 18.9787 154.305 17.4 153.601 16.248C152.918 15.096 152.182 14.2853 151.393 13.816C150.625 13.3253 149.857 13.08 149.089 13.08H149.057V31.384C149.057 32.2587 149.142 32.9093 149.313 33.336C149.505 33.7627 149.857 34.04 150.369 34.168C150.881 34.296 151.628 34.36 152.609 34.36V35C151.862 34.9787 150.849 34.9573 149.569 34.936C148.31 34.9147 146.988 34.904 145.601 34.904C144.278 34.904 143.03 34.9147 141.857 34.936C140.684 34.9573 139.734 34.9787 139.009 35V34.36C139.99 34.36 140.737 34.296 141.249 34.168C141.761 34.04 142.102 33.7627 142.273 33.336C142.465 32.9093 142.561 32.2587 142.561 31.384V13.08H142.529C141.761 13.08 140.982 13.3253 140.193 13.816C139.425 14.2853 138.7 15.096 138.017 16.248C137.334 17.3787 136.737 18.9573 136.225 20.984H135.489C135.532 20.7067 135.553 20.3653 135.553 19.96C135.574 19.5547 135.585 19.128 135.585 18.68C135.585 18.0613 135.564 17.1653 135.521 15.992C135.5 14.8187 135.446 13.6027 135.361 12.344C136.385 12.3653 137.516 12.3867 138.753 12.408C139.99 12.4293 141.228 12.44 142.465 12.44C143.702 12.44 144.822 12.44 145.825 12.44C146.828 12.44 147.948 12.44 149.185 12.44C150.422 12.44 151.66 12.4293 152.897 12.408C154.134 12.3867 155.254 12.3653 156.257 12.344ZM178.792 12.344V12.984C178.152 13.112 177.661 13.336 177.32 13.656C177 13.976 176.787 14.4773 176.68 15.16C176.573 15.8213 176.52 16.76 176.52 17.976V25.688C176.52 27.0107 176.424 28.2587 176.232 29.432C176.061 30.6053 175.72 31.6187 175.208 32.472C174.653 33.3893 173.821 34.1147 172.712 34.648C171.624 35.1813 170.163 35.448 168.328 35.448C167.347 35.448 166.312 35.3413 165.224 35.128C164.136 34.9147 163.165 34.5093 162.312 33.912C161.587 33.3787 161.032 32.728 160.648 31.96C160.264 31.192 160.008 30.296 159.88 29.272C159.752 28.248 159.688 27.0853 159.688 25.784V15.736C159.688 14.9467 159.635 14.3707 159.528 14.008C159.421 13.624 159.208 13.368 158.888 13.24C158.568 13.0907 158.077 13.0053 157.416 12.984V12.344C158.035 12.3653 158.845 12.3867 159.848 12.408C160.872 12.4293 161.939 12.44 163.048 12.44C164.157 12.44 165.224 12.4293 166.248 12.408C167.272 12.3867 168.115 12.3653 168.776 12.344V12.984C168.051 13.0053 167.496 13.0907 167.112 13.24C166.749 13.368 166.504 13.624 166.376 14.008C166.248 14.3707 166.184 14.9467 166.184 15.736V28.792C166.184 29.8373 166.269 30.7227 166.44 31.448C166.611 32.152 166.856 32.7173 167.176 33.144C167.517 33.5707 167.933 33.88 168.424 34.072C168.936 34.2427 169.523 34.328 170.184 34.328C171.613 34.328 172.733 33.9867 173.544 33.304C174.355 32.6 174.931 31.6293 175.272 30.392C175.613 29.1333 175.784 27.6827 175.784 26.04V18.616C175.784 17.1867 175.72 16.0987 175.592 15.352C175.485 14.584 175.208 14.0293 174.76 13.688C174.312 13.3467 173.576 13.112 172.552 12.984V12.344C172.979 12.3653 173.533 12.3867 174.216 12.408C174.899 12.4293 175.539 12.44 176.136 12.44C176.627 12.44 177.107 12.4293 177.576 12.408C178.067 12.3867 178.472 12.3653 178.792 12.344ZM190.74 12.344C195.22 12.344 198.537 13.304 200.692 15.224C202.868 17.1227 203.956 19.8533 203.956 23.416C203.956 25.7413 203.422 27.7787 202.356 29.528C201.289 31.256 199.742 32.6 197.716 33.56C195.71 34.52 193.289 35 190.452 35C190.11 35 189.652 34.9893 189.076 34.968C188.521 34.9467 187.934 34.936 187.316 34.936C186.697 34.9147 186.142 34.904 185.652 34.904C184.585 34.904 183.54 34.9147 182.516 34.936C181.513 34.936 180.702 34.9573 180.084 35V34.36C180.745 34.3173 181.236 34.232 181.556 34.104C181.876 33.976 182.089 33.72 182.196 33.336C182.302 32.952 182.356 32.376 182.356 31.608V15.736C182.356 14.9467 182.302 14.3707 182.196 14.008C182.089 13.624 181.865 13.368 181.524 13.24C181.204 13.0907 180.724 13.0053 180.084 12.984V12.344C180.702 12.3653 181.513 12.3973 182.516 12.44C183.54 12.4613 184.564 12.4613 185.588 12.44C186.377 12.4187 187.262 12.3973 188.244 12.376C189.246 12.3547 190.078 12.344 190.74 12.344ZM191.22 12.92C190.238 12.92 189.598 13.1013 189.3 13.464C189.001 13.8267 188.852 14.5627 188.852 15.672V31.672C188.852 32.7813 189.001 33.5173 189.3 33.88C189.62 34.2427 190.27 34.424 191.252 34.424C192.702 34.424 193.865 34.008 194.74 33.176C195.614 32.3227 196.244 31.0853 196.628 29.464C197.033 27.8427 197.236 25.8693 197.236 23.544C197.236 21.1547 197.022 19.1813 196.596 17.624C196.19 16.0453 195.54 14.872 194.644 14.104C193.769 13.3147 192.628 12.92 191.22 12.92ZM216.78 12.344V12.984C216.14 13.0053 215.649 13.0907 215.308 13.24C214.988 13.368 214.774 13.624 214.668 14.008C214.561 14.3707 214.508 14.9467 214.508 15.736V31.608C214.508 32.376 214.561 32.952 214.668 33.336C214.796 33.72 215.02 33.976 215.34 34.104C215.66 34.232 216.14 34.3173 216.78 34.36V35C216.161 34.9573 215.361 34.936 214.38 34.936C213.42 34.9147 212.438 34.904 211.436 34.904C210.284 34.904 209.196 34.9147 208.172 34.936C207.169 34.936 206.358 34.9573 205.74 35V34.36C206.401 34.3173 206.892 34.232 207.212 34.104C207.532 33.976 207.745 33.72 207.852 33.336C207.958 32.952 208.012 32.376 208.012 31.608V15.736C208.012 14.9467 207.958 14.3707 207.852 14.008C207.745 13.624 207.521 13.368 207.18 13.24C206.86 13.0907 206.38 13.0053 205.74 12.984V12.344C206.358 12.3653 207.169 12.3867 208.172 12.408C209.196 12.4293 210.284 12.44 211.436 12.44C212.438 12.44 213.42 12.4293 214.38 12.408C215.361 12.3867 216.161 12.3653 216.78 12.344ZM230.686 11.896C233.096 11.896 235.208 12.3547 237.022 13.272C238.835 14.1893 240.243 15.512 241.246 17.24C242.248 18.9467 242.75 21.0267 242.75 23.48C242.75 25.8693 242.238 27.96 241.214 29.752C240.19 31.544 238.76 32.9413 236.926 33.944C235.112 34.9467 233.022 35.448 230.654 35.448C228.243 35.448 226.131 34.9893 224.318 34.072C222.504 33.1547 221.096 31.832 220.094 30.104C219.091 28.376 218.59 26.296 218.59 23.864C218.59 21.4747 219.102 19.384 220.126 17.592C221.171 15.8 222.6 14.4027 224.414 13.4C226.227 12.3973 228.318 11.896 230.686 11.896ZM230.558 12.472C229.491 12.472 228.563 12.952 227.774 13.912C226.984 14.872 226.376 16.1947 225.95 17.88C225.523 19.5653 225.31 21.5173 225.31 23.736C225.31 25.9973 225.555 27.9707 226.046 29.656C226.536 31.32 227.198 32.6107 228.03 33.528C228.862 34.424 229.779 34.872 230.782 34.872C231.848 34.872 232.776 34.392 233.566 33.432C234.355 32.472 234.963 31.1493 235.39 29.464C235.816 27.7573 236.03 25.8053 236.03 23.608C236.03 21.3253 235.784 19.352 235.294 17.688C234.803 16.024 234.142 14.744 233.31 13.848C232.478 12.9307 231.56 12.472 230.558 12.472Z" fill="white"/>
</svg>
